#include <Wire.h>

#define NOTE_B0 31
#define NOTE_C1 33
#define NOTE_CS1 35
#define NOTE_D1 37
#define NOTE_DS1 39
#define NOTE_E1 41
#define NOTE_F1 44
#define NOTE_FS1 46
#define NOTE_G1 49
#define NOTE_GS1 52
#define NOTE_A1 55
#define NOTE_AS1 58
#define NOTE_B1 62
#define NOTE_C2 65
#define NOTE_CS2 69
#define NOTE_D2 73
#define NOTE_DS2 78
#define NOTE_E2 82
#define NOTE_F2 87
#define NOTE_FS2 93
#define NOTE_G2 98
#define NOTE_GS2 104
#define NOTE_A2 110
#define NOTE_AS2 117
#define NOTE_B2 123
#define NOTE_C3 131
#define NOTE_CS3 139
#define NOTE_D3 147
#define NOTE_DS3 156
#define NOTE_E3 165
#define NOTE_F3 175
#define NOTE_FS3 185
#define NOTE_G3 196
#define NOTE_GS3 208
#define NOTE_A3 220
#define NOTE_AS3 233
#define NOTE_B3 247
#define NOTE_C4 262
#define NOTE_CS4 277
#define NOTE_D4 294
#define NOTE_DS4 311
#define NOTE_E4 330
#define NOTE_F4 349
#define NOTE_FS4 370
#define NOTE_G4 392
#define NOTE_GS4 415
#define NOTE_A4 440
#define NOTE_AS4 466
#define NOTE_B4 494
#define NOTE_C5 523
#define NOTE_CS5 554
#define NOTE_D5 587
#define NOTE_DS5 622
#define NOTE_E5 659
#define NOTE_F5 698
#define NOTE_FS5 740
#define NOTE_G5 784
#define NOTE_GS5 831
#define NOTE_A5 880
#define NOTE_AS5 932
#define NOTE_B5 988
#define NOTE_C6 1047
#define NOTE_CS6 1109
#define NOTE_D6 1175
#define NOTE_DS6 1245
#define NOTE_E6 1319
#define NOTE_F6 1397
#define NOTE_FS6 1480
#define NOTE_G6 1568
#define NOTE_GS6 1661
#define NOTE_A6 1760
#define NOTE_AS6 1865
#define NOTE_B6 1976
#define NOTE_C7 2093
#define NOTE_CS7 2217
#define NOTE_D7 2349
#define NOTE_DS7 2489
#define NOTE_E7 2637
#define NOTE_F7 2794
#define NOTE_FS7 2960
#define NOTE_G7 3136
#define NOTE_GS7 3322
#define NOTE_A7 3520
#define NOTE_AS7 3729
#define NOTE_B7 3951
#define NOTE_C8 4186
#define NOTE_CS8 4435
#define NOTE_D8 4699
#define NOTE_DS8 4978
#define REST      0

#define IMPERIAL_MARCH 0
#define CANTINA_BAND 1
#define GAME_OF_THRONES 2
#define ODE_TO_JOY 3
#define GREEN_HILL_ZONE 4
#define SONG_OF_STORMS 5
#define SUPER_MARIO 6

#define NR_SONGS 4
const int PAUSE_ON = 1;
const int PAUSE_OFF = 2;
const int NEXT_SONG = 3;
const int PREVIOUS_SONG = 4;

int tempos[NR_SONGS];
//sources: https://dragaosemchama.com/en/2019/02/songs-for-arduino/
int ImperialMarch[] = {
  
  // Dart Vader theme (Imperial March) - Star wars 
  // Score available at https://musescore.com/user/202909/scores/1141521
  // The tenor saxophone part was used
  
  NOTE_A4,-4, NOTE_A4,-4, NOTE_A4,16, NOTE_A4,16, NOTE_A4,16, NOTE_A4,16, NOTE_F4,8, REST,8,
  NOTE_A4,-4, NOTE_A4,-4, NOTE_A4,16, NOTE_A4,16, NOTE_A4,16, NOTE_A4,16, NOTE_F4,8, REST,8,
  NOTE_A4,4, NOTE_A4,4, NOTE_A4,4, NOTE_F4,-8, NOTE_C5,16,

  NOTE_A4,4, NOTE_F4,-8, NOTE_C5,16, NOTE_A4,2,//4
  NOTE_E5,4, NOTE_E5,4, NOTE_E5,4, NOTE_F5,-8, NOTE_C5,16,
  NOTE_A4,4, NOTE_F4,-8, NOTE_C5,16, NOTE_A4,2,
  
  NOTE_A5,4, NOTE_A4,-8, NOTE_A4,16, NOTE_A5,4, NOTE_GS5,-8, NOTE_G5,16, //7 
  NOTE_DS5,16, NOTE_D5,16, NOTE_DS5,8, REST,8, NOTE_A4,8, NOTE_DS5,4, NOTE_D5,-8, NOTE_CS5,16,

  NOTE_C5,16, NOTE_B4,16, NOTE_C5,16, REST,8, NOTE_F4,8, NOTE_GS4,4, NOTE_F4,-8, NOTE_A4,-16,//9
  NOTE_C5,4, NOTE_A4,-8, NOTE_C5,16, NOTE_E5,2,

  NOTE_A5,4, NOTE_A4,-8, NOTE_A4,16, NOTE_A5,4, NOTE_GS5,-8, NOTE_G5,16, //7 
  NOTE_DS5,16, NOTE_D5,16, NOTE_DS5,8, REST,8, NOTE_A4,8, NOTE_DS5,4, NOTE_D5,-8, NOTE_CS5,16,

  NOTE_C5,16, NOTE_B4,16, NOTE_C5,16, REST,8, NOTE_F4,8, NOTE_GS4,4, NOTE_F4,-8, NOTE_A4,-16,//9
  NOTE_A4,4, NOTE_F4,-8, NOTE_C5,16, NOTE_A4,2,
  
};

int CantinaBand[] = {
  
  // Cantina BAnd - Star wars 
  // Score available at https://musescore.com/user/6795541/scores/1606876
  NOTE_B4,-4, NOTE_E5,-4, NOTE_B4,-4, NOTE_E5,-4, 
  NOTE_B4,8,  NOTE_E5,-4, NOTE_B4,8, REST,8,  NOTE_AS4,8, NOTE_B4,8, 
  NOTE_B4,8,  NOTE_AS4,8, NOTE_B4,8, NOTE_A4,8, REST,8, NOTE_GS4,8, NOTE_A4,8, NOTE_G4,8,
  NOTE_G4,4,  NOTE_E4,-2, 
  NOTE_B4,-4, NOTE_E5,-4, NOTE_B4,-4, NOTE_E5,-4, 
  NOTE_B4,8,  NOTE_E5,-4, NOTE_B4,8, REST,8,  NOTE_AS4,8, NOTE_B4,8,

  NOTE_A4,-4, NOTE_A4,-4, NOTE_GS4,8, NOTE_A4,-4,
  NOTE_D5,8,  NOTE_C5,-4, NOTE_B4,-4, NOTE_A4,-4,
  NOTE_B4,-4, NOTE_E5,-4, NOTE_B4,-4, NOTE_E5,-4, 
  NOTE_B4,8,  NOTE_E5,-4, NOTE_B4,8, REST,8,  NOTE_AS4,8, NOTE_B4,8,
  NOTE_D5,4, NOTE_D5,-4, NOTE_B4,8, NOTE_A4,-4,
  NOTE_G4,-4, NOTE_E4,-2,
  NOTE_E4, 2, NOTE_G4,2,
  NOTE_B4, 2, NOTE_D5,2,

  NOTE_F5, -4, NOTE_E5,-4, NOTE_AS4,8, NOTE_AS4,8, NOTE_B4,4, NOTE_G4,4, 
  
  
  

};

int GameOfThrones[] = {

  // Game of Thrones
  // Score available at https://musescore.com/user/8407786/scores/2156716

  NOTE_G4,8, NOTE_C4,8, NOTE_DS4,16, NOTE_F4,16, NOTE_G4,8, NOTE_C4,8, NOTE_DS4,16, NOTE_F4,16, //1
  NOTE_G4,8, NOTE_C4,8, NOTE_DS4,16, NOTE_F4,16, NOTE_G4,8, NOTE_C4,8, NOTE_DS4,16, NOTE_F4,16,
  NOTE_G4,8, NOTE_C4,8, NOTE_E4,16, NOTE_F4,16, NOTE_G4,8, NOTE_C4,8, NOTE_E4,16, NOTE_F4,16,
  NOTE_G4,8, NOTE_C4,8, NOTE_E4,16, NOTE_F4,16, NOTE_G4,8, NOTE_C4,8, NOTE_E4,16, NOTE_F4,16,
  NOTE_G4,-4, NOTE_C4,-4,//5

  NOTE_DS4,16, NOTE_F4,16, NOTE_G4,4, NOTE_C4,4, NOTE_DS4,16, NOTE_F4,16, //6
  NOTE_D4,-1, //7 and 8
  NOTE_F4,-4, NOTE_AS3,-4,
  NOTE_DS4,16, NOTE_D4,16, NOTE_F4,4, NOTE_AS3,-4,
  NOTE_DS4,16, NOTE_D4,16, NOTE_C4,-1, //11 and 12

  //repeats from 5
  NOTE_G4,-4, NOTE_C4,-4,//5

  NOTE_DS4,16, NOTE_F4,16, NOTE_G4,4, NOTE_C4,4, NOTE_DS4,16, NOTE_F4,16, //6
  NOTE_D4,-1, //7 and 8
  NOTE_F4,-4, NOTE_AS3,-4,
  NOTE_DS4,16, NOTE_D4,16, NOTE_F4,4, NOTE_AS3,-4,
  NOTE_DS4,16, NOTE_D4,16, NOTE_C4,-1, //11 and 12
  NOTE_G4,-4, NOTE_C4,-4,
  NOTE_DS4,16, NOTE_F4,16, NOTE_G4,4,  NOTE_C4,4, NOTE_DS4,16, NOTE_F4,16,

  NOTE_D4,-2,//15
  NOTE_F4,-4, NOTE_AS3,-4,
  NOTE_D4,-8, NOTE_DS4,-8, NOTE_D4,-8, NOTE_AS3,-8,
  NOTE_C4,-1,
  NOTE_C5,-2,
  NOTE_AS4,-2,
  NOTE_C4,-2,
  NOTE_G4,-2,
  NOTE_DS4,-2,
  NOTE_DS4,-4, NOTE_F4,-4, 
  NOTE_G4,-1,
  
  NOTE_C5,-2,//28
  NOTE_AS4,-2,
  NOTE_C4,-2,
  NOTE_G4,-2, 
  NOTE_DS4,-2,
  NOTE_DS4,-4, NOTE_D4,-4,
  NOTE_C5,8, NOTE_G4,8, NOTE_GS4,16, NOTE_AS4,16, NOTE_C5,8, NOTE_G4,8, NOTE_GS4,16, NOTE_AS4,16,
  NOTE_C5,8, NOTE_G4,8, NOTE_GS4,16, NOTE_AS4,16, NOTE_C5,8, NOTE_G4,8, NOTE_GS4,16, NOTE_AS4,16,
  
  REST,4, NOTE_GS5,16, NOTE_AS5,16, NOTE_C6,8, NOTE_G5,8, NOTE_GS5,16, NOTE_AS5,16,
  NOTE_C6,8, NOTE_G5,16, NOTE_GS5,16, NOTE_AS5,16, NOTE_C6,8, NOTE_G5,8, NOTE_GS5,16, NOTE_AS5,16,  
};

int OdeToJoy[] = {

  
  NOTE_E4,4,  NOTE_E4,4,  NOTE_F4,4,  NOTE_G4,4,//1
  NOTE_G4,4,  NOTE_F4,4,  NOTE_E4,4,  NOTE_D4,4,
  NOTE_C4,4,  NOTE_C4,4,  NOTE_D4,4,  NOTE_E4,4,
  NOTE_E4,-4, NOTE_D4,8,  NOTE_D4,2,

  NOTE_E4,4,  NOTE_E4,4,  NOTE_F4,4,  NOTE_G4,4,//4
  NOTE_G4,4,  NOTE_F4,4,  NOTE_E4,4,  NOTE_D4,4,
  NOTE_C4,4,  NOTE_C4,4,  NOTE_D4,4,  NOTE_E4,4,
  NOTE_D4,-4,  NOTE_C4,8,  NOTE_C4,2,

  NOTE_D4,4,  NOTE_D4,4,  NOTE_E4,4,  NOTE_C4,4,//8
  NOTE_D4,4,  NOTE_E4,8,  NOTE_F4,8,  NOTE_E4,4, NOTE_C4,4,
  NOTE_D4,4,  NOTE_E4,8,  NOTE_F4,8,  NOTE_E4,4, NOTE_D4,4,
  NOTE_C4,4,  NOTE_D4,4,  NOTE_G3,2,

  NOTE_E4,4,  NOTE_E4,4,  NOTE_F4,4,  NOTE_G4,4,//12
  NOTE_G4,4,  NOTE_F4,4,  NOTE_E4,4,  NOTE_D4,4,
  NOTE_C4,4,  NOTE_C4,4,  NOTE_D4,4,  NOTE_E4,4,
  NOTE_D4,-4,  NOTE_C4,8,  NOTE_C4,2
  
};

/*int GreenHillZone[] = {

  // Gren Hill Zone - Sonic the Hedgehog
  // Score available at https://musescore.com/user/248346/scores/461661
  // Theme by Masato Nakamura, arranged by Teddy Mason
  
  REST,2, NOTE_D5,8, NOTE_B4,4, NOTE_D5,8, //1
  NOTE_CS5,4, NOTE_D5,8, NOTE_CS5,4, NOTE_A4,2, 
  REST,8, NOTE_A4,8, NOTE_FS5,8, NOTE_E5,4, NOTE_D5,8,
  NOTE_CS5,4, NOTE_D5,8, NOTE_CS5,4, NOTE_A4,2, 
  REST,4, NOTE_D5,8, NOTE_B4,4, NOTE_D5,8,
  NOTE_CS5,4, NOTE_D5,8, NOTE_CS5,4, NOTE_A4,2, 

  REST,8, NOTE_B4,8, NOTE_B4,8, NOTE_G4,4, NOTE_B4,8, //7
  NOTE_A4,4, NOTE_B4,8, NOTE_A4,4, NOTE_D4,2,
  REST,4, NOTE_D5,8, NOTE_B4,4, NOTE_D5,8,
  NOTE_CS5,4, NOTE_D5,8, NOTE_CS5,4, NOTE_A4,2, 
  REST,8, NOTE_A4,8, NOTE_FS5,8, NOTE_E5,4, NOTE_D5,8,
  NOTE_CS5,4, NOTE_D5,8, NOTE_CS5,4, NOTE_A4,2, 

  REST,4, NOTE_D5,8, NOTE_B4,4, NOTE_D5,8, //13
  NOTE_CS5,4, NOTE_D5,8, NOTE_CS5,4, NOTE_A4,2, 
  REST,8, NOTE_B4,8, NOTE_B4,8, NOTE_G4,4, NOTE_B4,8,
  NOTE_A4,4, NOTE_B4,8, NOTE_A4,4, NOTE_D4,8, NOTE_D4,8, NOTE_FS4,8,
  NOTE_E4,-1,
  REST,8, NOTE_D4,8, NOTE_E4,8, NOTE_FS4,-1,

  REST,8, NOTE_D4,8, NOTE_D4,8, NOTE_FS4,8, NOTE_F4,-1, //20
  REST,8, NOTE_D4,8, NOTE_F4,8, NOTE_E4,-1, //end 1

  //repeats from 1

  REST,2, NOTE_D5,8, NOTE_B4,4, NOTE_D5,8, //1
  NOTE_CS5,4, NOTE_D5,8, NOTE_CS5,4, NOTE_A4,2, 
  REST,8, NOTE_A4,8, NOTE_FS5,8, NOTE_E5,4, NOTE_D5,8,
  NOTE_CS5,4, NOTE_D5,8, NOTE_CS5,4, NOTE_A4,2, 
  REST,4, NOTE_D5,8, NOTE_B4,4, NOTE_D5,8,
  NOTE_CS5,4, NOTE_D5,8, NOTE_CS5,4, NOTE_A4,2, 

  REST,8, NOTE_B4,8, NOTE_B4,8, NOTE_G4,4, NOTE_B4,8, //7
  NOTE_A4,4, NOTE_B4,8, NOTE_A4,4, NOTE_D4,2,
  REST,4, NOTE_D5,8, NOTE_B4,4, NOTE_D5,8,
  NOTE_CS5,4, NOTE_D5,8, NOTE_CS5,4, NOTE_A4,2, 
  REST,8, NOTE_A4,8, NOTE_FS5,8, NOTE_E5,4, NOTE_D5,8,
  NOTE_CS5,4, NOTE_D5,8, NOTE_CS5,4, NOTE_A4,2, 

  REST,4, NOTE_D5,8, NOTE_B4,4, NOTE_D5,8, //13
  NOTE_CS5,4, NOTE_D5,8, NOTE_CS5,4, NOTE_A4,2, 
  REST,8, NOTE_B4,8, NOTE_B4,8, NOTE_G4,4, NOTE_B4,8,
  NOTE_A4,4, NOTE_B4,8, NOTE_A4,4, NOTE_D4,8, NOTE_D4,8, NOTE_FS4,8,
  NOTE_E4,-1,
  REST,8, NOTE_D4,8, NOTE_E4,8, NOTE_FS4,-1,

  REST,8, NOTE_D4,8, NOTE_D4,8, NOTE_FS4,8, NOTE_F4,-1, //20
  REST,8, NOTE_D4,8, NOTE_F4,8, NOTE_E4,8, //end 2
  NOTE_E4,-2, NOTE_A4,8, NOTE_CS5,8, 
  NOTE_FS5,8, NOTE_E5,4, NOTE_D5,8, NOTE_A5,-4,

};

int SongOfStorms[] = {
  
  // Song of storms - The Legend of Zelda Ocarina of Time. 
  // Score available at https://musescore.com/user/4957541/scores/1545401
  
  NOTE_D4,4, NOTE_A4,4, NOTE_A4,4,
  REST,8, NOTE_E4,8, NOTE_B4,2,
  NOTE_F4,4, NOTE_C5,4, NOTE_C5,4,
  REST,8, NOTE_E4,8, NOTE_B4,2,
  NOTE_D4,4, NOTE_A4,4, NOTE_A4,4,
  REST,8, NOTE_E4,8, NOTE_B4,2,
  NOTE_F4,4, NOTE_C5,4, NOTE_C5,4,
  REST,8, NOTE_E4,8, NOTE_B4,2,
  NOTE_D4,8, NOTE_F4,8, NOTE_D5,2,
  
  NOTE_D4,8, NOTE_F4,8, NOTE_D5,2,
  NOTE_E5,-4, NOTE_F5,8, NOTE_E5,8, NOTE_E5,8,
  NOTE_E5,8, NOTE_C5,8, NOTE_A4,2,
  NOTE_A4,4, NOTE_D4,4, NOTE_F4,8, NOTE_G4,8,
  NOTE_A4,-2,
  NOTE_A4,4, NOTE_D4,4, NOTE_F4,8, NOTE_G4,8,
  NOTE_E4,-2,
  NOTE_D4,8, NOTE_F4,8, NOTE_D5,2,
  NOTE_D4,8, NOTE_F4,8, NOTE_D5,2,

  NOTE_E5,-4, NOTE_F5,8, NOTE_E5,8, NOTE_E5,8,
  NOTE_E5,8, NOTE_C5,8, NOTE_A4,2,
  NOTE_A4,4, NOTE_D4,4, NOTE_F4,8, NOTE_G4,8,
  NOTE_A4,2, NOTE_A4,4,
  NOTE_D4,1,
};

/*int SuperMario[] = {

  // Super Mario Bros theme
  // Score available at https://musescore.com/user/2123/scores/2145
  // Theme by Koji Kondo
  
  
  NOTE_E5,8, NOTE_E5,8, REST,8, NOTE_E5,8, REST,8, NOTE_C5,8, NOTE_E5,8, //1
  NOTE_G5,4, REST,4, NOTE_G4,8, REST,4, 
  NOTE_C5,-4, NOTE_G4,8, REST,4, NOTE_E4,-4, // 3
  NOTE_A4,4, NOTE_B4,4, NOTE_AS4,8, NOTE_A4,4,
  NOTE_G4,-8, NOTE_E5,-8, NOTE_G5,-8, NOTE_A5,4, NOTE_F5,8, NOTE_G5,8,
  REST,8, NOTE_E5,4,NOTE_C5,8, NOTE_D5,8, NOTE_B4,-4,
  NOTE_C5,-4, NOTE_G4,8, REST,4, NOTE_E4,-4, // repeats from 3
  NOTE_A4,4, NOTE_B4,4, NOTE_AS4,8, NOTE_A4,4,
  NOTE_G4,-8, NOTE_E5,-8, NOTE_G5,-8, NOTE_A5,4, NOTE_F5,8, NOTE_G5,8,
  REST,8, NOTE_E5,4,NOTE_C5,8, NOTE_D5,8, NOTE_B4,-4,

  
  REST,4, NOTE_G5,8, NOTE_FS5,8, NOTE_F5,8, NOTE_DS5,4, NOTE_E5,8,//7
  REST,8, NOTE_GS4,8, NOTE_A4,8, NOTE_C4,8, REST,8, NOTE_A4,8, NOTE_C5,8, NOTE_D5,8,
  REST,4, NOTE_DS5,4, REST,8, NOTE_D5,-4,
  NOTE_C5,2, REST,2,

  REST,4, NOTE_G5,8, NOTE_FS5,8, NOTE_F5,8, NOTE_DS5,4, NOTE_E5,8,//repeats from 7
  REST,8, NOTE_GS4,8, NOTE_A4,8, NOTE_C4,8, REST,8, NOTE_A4,8, NOTE_C5,8, NOTE_D5,8,
  REST,4, NOTE_DS5,4, REST,8, NOTE_D5,-4,
  NOTE_C5,2, REST,2,

  NOTE_C5,8, NOTE_C5,4, NOTE_C5,8, REST,8, NOTE_C5,8, NOTE_D5,4,//11
  NOTE_E5,8, NOTE_C5,4, NOTE_A4,8, NOTE_G4,2,

  NOTE_C5,8, NOTE_C5,4, NOTE_C5,8, REST,8, NOTE_C5,8, NOTE_D5,8, NOTE_E5,8,//13
  REST,1, 
  NOTE_C5,8, NOTE_C5,4, NOTE_C5,8, REST,8, NOTE_C5,8, NOTE_D5,4,
  NOTE_E5,8, NOTE_C5,4, NOTE_A4,8, NOTE_G4,2,
  NOTE_E5,8, NOTE_E5,8, REST,8, NOTE_E5,8, REST,8, NOTE_C5,8, NOTE_E5,4,
  NOTE_G5,4, REST,4, NOTE_G4,4, REST,4, 
  NOTE_C5,-4, NOTE_G4,8, REST,4, NOTE_E4,-4, // 19
  
  NOTE_A4,4, NOTE_B4,4, NOTE_AS4,8, NOTE_A4,4,
  NOTE_G4,-8, NOTE_E5,-8, NOTE_G5,-8, NOTE_A5,4, NOTE_F5,8, NOTE_G5,8,
  REST,8, NOTE_E5,4, NOTE_C5,8, NOTE_D5,8, NOTE_B4,-4,

  NOTE_C5,-4, NOTE_G4,8, REST,4, NOTE_E4,-4, // repeats from 19
  NOTE_A4,4, NOTE_B4,4, NOTE_AS4,8, NOTE_A4,4,
  NOTE_G4,-8, NOTE_E5,-8, NOTE_G5,-8, NOTE_A5,4, NOTE_F5,8, NOTE_G5,8,
  REST,8, NOTE_E5,4, NOTE_C5,8, NOTE_D5,8, NOTE_B4,-4,

  NOTE_E5,8, NOTE_C5,4, NOTE_G4,8, REST,4, NOTE_GS4,4,//23
  NOTE_A4,8, NOTE_F5,4, NOTE_F5,8, NOTE_A4,2,
  NOTE_D5,-8, NOTE_A5,-8, NOTE_A5,-8, NOTE_A5,-8, NOTE_G5,-8, NOTE_F5,-8,
  
  NOTE_E5,8, NOTE_C5,4, NOTE_A4,8, NOTE_G4,2, //26
  NOTE_E5,8, NOTE_C5,4, NOTE_G4,8, REST,4, NOTE_GS4,4,
  NOTE_A4,8, NOTE_F5,4, NOTE_F5,8, NOTE_A4,2,
  NOTE_B4,8, NOTE_F5,4, NOTE_F5,8, NOTE_F5,-8, NOTE_E5,-8, NOTE_D5,-8,
  NOTE_C5,8, NOTE_E4,4, NOTE_E4,8, NOTE_C4,2,

  NOTE_E5,8, NOTE_C5,4, NOTE_G4,8, REST,4, NOTE_GS4,4,//repeats from 23
  NOTE_A4,8, NOTE_F5,4, NOTE_F5,8, NOTE_A4,2,
  NOTE_D5,-8, NOTE_A5,-8, NOTE_A5,-8, NOTE_A5,-8, NOTE_G5,-8, NOTE_F5,-8,
  
  NOTE_E5,8, NOTE_C5,4, NOTE_A4,8, NOTE_G4,2, //26
  NOTE_E5,8, NOTE_C5,4, NOTE_G4,8, REST,4, NOTE_GS4,4,
  NOTE_A4,8, NOTE_F5,4, NOTE_F5,8, NOTE_A4,2,
  NOTE_B4,8, NOTE_F5,4, NOTE_F5,8, NOTE_F5,-8, NOTE_E5,-8, NOTE_D5,-8,
  NOTE_C5,8, NOTE_E4,4, NOTE_E4,8, NOTE_C4,2,
  NOTE_C5,8, NOTE_C5,4, NOTE_C5,8, REST,8, NOTE_C5,8, NOTE_D5,8, NOTE_E5,8,
  REST,1,

  NOTE_C5,8, NOTE_C5,4, NOTE_C5,8, REST,8, NOTE_C5,8, NOTE_D5,4, //33
  NOTE_E5,8, NOTE_C5,4, NOTE_A4,8, NOTE_G4,2,
  NOTE_E5,8, NOTE_E5,8, REST,8, NOTE_E5,8, REST,8, NOTE_C5,8, NOTE_E5,4,
  NOTE_G5,4, REST,4, NOTE_G4,4, REST,4, 
  NOTE_E5,8, NOTE_C5,4, NOTE_G4,8, REST,4, NOTE_GS4,4,
  NOTE_A4,8, NOTE_F5,4, NOTE_F5,8, NOTE_A4,2,
  NOTE_D5,-8, NOTE_A5,-8, NOTE_A5,-8, NOTE_A5,-8, NOTE_G5,-8, NOTE_F5,-8,
  
  NOTE_E5,8, NOTE_C5,4, NOTE_A4,8, NOTE_G4,2, //40
  NOTE_E5,8, NOTE_C5,4, NOTE_G4,8, REST,4, NOTE_GS4,4,
  NOTE_A4,8, NOTE_F5,4, NOTE_F5,8, NOTE_A4,2,
  NOTE_B4,8, NOTE_F5,4, NOTE_F5,8, NOTE_F5,-8, NOTE_E5,-8, NOTE_D5,-8,
  NOTE_C5,8, NOTE_E4,4, NOTE_E4,8, NOTE_C4,2,
  
  //game over sound
  NOTE_C5,-4, NOTE_G4,-4, NOTE_E4,4, //45
  NOTE_A4,-8, NOTE_B4,-8, NOTE_A4,-8, NOTE_GS4,-8, NOTE_AS4,-8, NOTE_GS4,-8,
  NOTE_G4,8, NOTE_D4,8, NOTE_E4,-2,  

};*/

int readValue;

int* melodies[] = {
    ImperialMarch, 
    CantinaBand,
    GameOfThrones,
	OdeToJoy
	};

int notes[NR_SONGS];
// sizeof gives the number of bytes, each int value is composed of two bytes (16 bits)
// there are two values per note (pitch and duration), so for each note there are four bytes


// this calculates the duration of a whole note in ms
int wholenote;

int divider = 0, noteDuration = 0;

volatile bool pause;
volatile bool nextSong;
volatile bool sendPause;

int noteCounter;
int songCounter;
char previous;

void setup()
{
  Serial.begin(9600);
  Wire.begin();
  // The 2 interrupt pins 21 and 20 declared as inputs with
  // pull-up resistors activated
  pinMode(2 , INPUT);
  pinMode(3 , INPUT);
  digitalWrite(2, LOW);
  digitalWrite(3, LOW);
  
  noteCounter = 0;
  songCounter = 0;
  
  // Attach ISRs to the interrupts corresponding to pins 21
  // and 20 (INT0 and INT1)
  attachInterrupt(digitalPinToInterrupt(2), pauseFunction, RISING);
  attachInterrupt(digitalPinToInterrupt(3), nextSongFunction, RISING);

  notes[IMPERIAL_MARCH] = sizeof(ImperialMarch) / sizeof(ImperialMarch[0]) / 2;
  notes[CANTINA_BAND] = sizeof(CantinaBand) / sizeof(CantinaBand[0]) / 2;
  notes[GAME_OF_THRONES] = sizeof(GameOfThrones) / sizeof(GameOfThrones[0]) / 2;
  notes[ODE_TO_JOY] = sizeof(OdeToJoy) / sizeof(OdeToJoy[0]) / 2;
  //notes[GREEN_HILL_ZONE] = sizeof(GreenHillZone) / sizeof(GreenHillZone[0]) / 2;
  //notes[SONG_OF_STORMS] = sizeof(SongOfStorms) / sizeof(SongOfStorms[0]) / 2;
  //notes[SUPER_MARIO] = sizeof(SuperMario) / sizeof(SuperMario[0]) / 2;

  tempos[IMPERIAL_MARCH] = 120;
  tempos[CANTINA_BAND] = 140;
  tempos[GAME_OF_THRONES] = 85;
  tempos[ODE_TO_JOY] = 114;
  //tempos[GREEN_HILL_ZONE] = 144;
  //tempos[SONG_OF_STORMS] = 108;
  //tempos[SUPER_MARIO] = 200;
}

void loop()
{
    Wire.requestFrom(9, 1);
  
    while(Wire.available() == 1)
     previous = Wire.read();
 
  
    if(sendPause){
		
     if(pause)
       sendCommand(PAUSE_ON);
     else
       sendCommand(PAUSE_OFF);
     
     sendPause = false;
   	}
  
  
 if(!pause){
   
    if(nextSong){
   
   		songCounter++;
     	noteCounter = 0;
     	nextSong = false;
     
		sendCommand(NEXT_SONG);
    }
   
    if(previous == '1'){
     
		songCounter--; 
		noteCounter = 0;
      
		sendCommand(PREVIOUS_SONG);
    
    }
   
    if(songCounter < NR_SONGS && songCounter >= 0){

        if(noteCounter < notes[songCounter] * 2){

            divider = melodies[songCounter][noteCounter + 1];
            wholenote = (60000 * 2) / tempos[songCounter];

            if (divider > 0) {
            // regular note, just proceed
            noteDuration = (wholenote) / divider;
            } else if (divider < 0) {
            // dotted notes are represented with negative durations!!
            noteDuration = (wholenote) / abs(divider);
            noteDuration *= 1.5; // increases the duration in half for dotted notes
            }

            // we only play the note for 90% of the duration, leaving 10% as a pause
            tone(12, melodies[songCounter][noteCounter], noteDuration*0.9);

            // Wait for the specief duration before playing the next note.
            delay(noteDuration *0.95);
        
        // stop the waveform generation before the next note.
            noTone(12);

            noteCounter += 2;
        
        }else{

            songCounter++;
            noteCounter = 0;
          	delay(500);	
          
			sendCommand(NEXT_SONG);
        }
         
    }else{ 
      
        if(songCounter == NR_SONGS)      
          songCounter = 0;
          
        if(songCounter < 0)
          songCounter = 3;
    }
   
 }
  
}

// First ISR function
void pauseFunction()
{	

    pause = !pause;
  	sendPause = true;
  
    noTone(12);
}

// 2-nd ISR function
void nextSongFunction()
{
    if(!pause){

        nextSong = !nextSong;
        noTone(12);
    }
}

void sendCommand(int value){
 
  	Wire.beginTransmission(9); // transmit to device #9
	Wire.write(value);
	Wire.endTransmission();
  
}
